<svg xmlns="http://www.w3.org/2000/svg" xmlns:xlink="http://www.w3.org/1999/xlink" version="1.1" x="0px" y="0px" viewBox="0 0 100 100" style="enable-background:new 0 0 100 100;" xml:space="preserve"><path d="M89.6,81.9L57.6,50l31.9-31.9l0.1-0.1c1.8-2,1.8-5.1-0.1-6.9c-1-1-2.3-1.5-3.7-1.5c-1.3,0-2.5,0.6-3.4,1.5L50.5,43l-32.9-33  c-1-1-2.3-1.5-3.7-1.5c-1.3,0-2.5,0.6-3.4,1.5c-0.9,1-1.5,2.3-1.4,3.6c0,1.3,0.6,2.5,1.5,3.4l32.9,33l-33,33c-1,1-1.5,2.3-1.5,3.7  c0,1.3,0.6,2.5,1.5,3.4c0.7,0.6,1.8,1.4,3.5,1.4c1.8,0,2.9-0.8,3.6-1.4l33-33L82.5,89c0.7,0.7,1.8,1.4,3.6,1.4  c1.8,0,2.9-0.8,3.6-1.4c1-1,1.5-2.3,1.5-3.7C91.1,84,90.6,82.8,89.6,81.9z"/></svg>